<?xml version="1.0" encoding="utf-8"?>
<!-- Generator: Adobe Illustrator 18.1.1, SVG Export Plug-In . SVG Version: 6.00 Build 0)  -->
<svg version="1.1" id="Layer_1" xmlns="http://www.w3.org/2000/svg" xmlns:xlink="http://www.w3.org/1999/xlink" x="0px" y="0px"
	 viewBox="0 0 141.7 70.3" enable-background="new 0 0 141.7 70.3" xml:space="preserve">
<polygon fill="#005DAA" points="73.6,13.1 71.6,13.1 67.3,0 70,0 72.6,8.6 75.2,0 77.9,0 "/>
<g>
	<defs>
		<rect id="SVGID_1_" x="0" y="0" width="141.7" height="70.3"/>
	</defs>
	<clipPath id="SVGID_2_">
		<use xlink:href="#SVGID_1_"  overflow="visible"/>
	</clipPath>
	<path clip-path="url(#SVGID_2_)" fill="#005DAA" d="M83.8,12c-0.6,0.6-1.6,1.2-3,1.2c-1.4,0-2.4-0.5-3-1.2c-0.9-0.9-1.1-2-1.1-3.7
		c0-1.7,0.2-2.8,1.1-3.7c0.6-0.6,1.5-1.2,3-1.2c1.4,0,2.4,0.6,3,1.2c0.9,0.9,1.1,2,1.1,3.7C84.9,10.1,84.7,11.1,83.8,12 M82,6
		c-0.3-0.3-0.6-0.4-1.1-0.4c-0.5,0-0.8,0.1-1.1,0.4c-0.5,0.5-0.6,1.3-0.6,2.3c0,1,0.1,1.8,0.6,2.3c0.3,0.3,0.6,0.4,1.1,0.4
		c0.5,0,0.8-0.1,1.1-0.4c0.5-0.5,0.6-1.3,0.6-2.3C82.5,7.3,82.5,6.5,82,6"/>
	<path clip-path="url(#SVGID_2_)" fill="#005DAA" d="M88.9,13.1c-2,0-2.8-1.4-2.8-2.7V0h2.4v10.2c0,0.6,0.2,0.9,0.8,0.9h0.9v2H88.9z
		"/>
	<path clip-path="url(#SVGID_2_)" fill="#005DAA" d="M96.9,13.1v-0.9c-0.6,0.7-1.5,1-2.4,1c-1,0-1.7-0.3-2.3-0.8
		c-0.8-0.8-1-1.7-1-2.7V3.5h2.4v5.8c0,1.3,0.8,1.7,1.6,1.7c0.8,0,1.6-0.4,1.6-1.7V3.5h2.4v9.6H96.9z"/>
	<path clip-path="url(#SVGID_2_)" fill="#005DAA" d="M106.2,13.1V7.3c0-1.3-0.8-1.7-1.6-1.7s-1.6,0.4-1.6,1.7v5.8h-2.4V3.5h2.3v0.9
		c0.6-0.7,1.5-1,2.4-1c1,0,1.7,0.3,2.3,0.8c0.8,0.8,1,1.7,1,2.7v6.1H106.2z"/>
	<path clip-path="url(#SVGID_2_)" fill="#005DAA" d="M113.5,13.1c-1.9,0-2.8-1.4-2.8-2.7V5.6h-1V3.8h1V1h2.4v2.8h1.7v1.8h-1.7v4.6
		c0,0.6,0.3,0.9,0.8,0.9h0.9v2H113.5z"/>
	<path clip-path="url(#SVGID_2_)" fill="#005DAA" d="M118,9.1c0,1.2,0.8,2.1,2.1,2.1c1,0,1.6-0.3,2.2-0.9l1.5,1.4
		c-1,1-1.9,1.5-3.6,1.5c-2.3,0-4.4-1-4.4-4.9c0-3.1,1.7-4.9,4.2-4.9c2.7,0,4.2,1.9,4.2,4.6v1.1H118z M121.4,6.4
		c-0.3-0.6-0.8-1-1.6-1c-0.8,0-1.3,0.4-1.6,1c-0.1,0.3-0.2,0.6-0.2,1h3.6C121.6,7,121.5,6.8,121.4,6.4"/>
	<path clip-path="url(#SVGID_2_)" fill="#005DAA" d="M127.3,9.1c0,1.2,0.8,2.1,2.1,2.1c1,0,1.6-0.3,2.2-0.9l1.5,1.4
		c-1,1-1.9,1.5-3.6,1.5c-2.3,0-4.4-1-4.4-4.9c0-3.1,1.7-4.9,4.2-4.9c2.7,0,4.2,1.9,4.2,4.6v1.1H127.3z M130.7,6.4
		c-0.3-0.6-0.8-1-1.6-1c-0.8,0-1.3,0.4-1.6,1c-0.1,0.3-0.2,0.6-0.2,1h3.6C130.9,7,130.9,6.8,130.7,6.4"/>
	<path clip-path="url(#SVGID_2_)" fill="#005DAA" d="M139.9,6.2c-0.4-0.4-0.7-0.6-1.3-0.6c-0.7,0-1.5,0.6-1.5,1.8v5.8h-2.4V3.5h2.3
		v0.9c0.5-0.6,1.4-1,2.4-1c0.9,0,1.6,0.2,2.3,0.9L139.9,6.2z"/>
	<path clip-path="url(#SVGID_2_)" fill="#005DAA" d="M73.9,25.5h-2.5v4.9h-2.6V17.3h5.1c2.7,0,4.3,1.9,4.3,4.1
		C78.2,23.6,76.6,25.5,73.9,25.5 M73.7,19.6h-2.4v3.6h2.4c1.2,0,1.9-0.7,1.9-1.8C75.6,20.3,74.9,19.6,73.7,19.6"/>
	<path clip-path="url(#SVGID_2_)" fill="#005DAA" d="M85.6,29.3c-0.6,0.6-1.6,1.2-3,1.2s-2.4-0.5-3-1.2c-0.9-0.9-1.1-2-1.1-3.7
		c0-1.7,0.2-2.8,1.1-3.7c0.6-0.6,1.5-1.2,3-1.2s2.4,0.6,3,1.2c0.9,0.9,1.1,2,1.1,3.7C86.7,27.3,86.4,28.4,85.6,29.3 M83.7,23.3
		c-0.3-0.3-0.6-0.4-1.1-0.4c-0.5,0-0.8,0.1-1.1,0.4C81,23.8,81,24.6,81,25.6c0,1,0.1,1.8,0.6,2.3c0.3,0.3,0.6,0.4,1.1,0.4
		c0.5,0,0.8-0.1,1.1-0.4c0.5-0.5,0.6-1.3,0.6-2.3C84.3,24.6,84.2,23.8,83.7,23.3"/>
	<path clip-path="url(#SVGID_2_)" fill="#005DAA" d="M90.9,30.4c-2,0-2.8-1.4-2.8-2.7V17.3h2.4v10.2c0,0.6,0.2,0.9,0.8,0.9h0.9v2
		H90.9z"/>
	<path clip-path="url(#SVGID_2_)" fill="#005DAA" d="M93.4,17.2h2.4v1.9h-2.4V17.2z M93.4,20.8h2.4v9.6h-2.4V20.8z"/>
	<path clip-path="url(#SVGID_2_)" fill="#005DAA" d="M101.5,30.5c-1.9,0-4.3-1-4.3-4.9c0-3.9,2.4-4.9,4.3-4.9c1.3,0,2.3,0.4,3.2,1.3
		l-1.6,1.6c-0.5-0.5-0.9-0.8-1.5-0.8c-0.6,0-1,0.2-1.4,0.6c-0.4,0.5-0.5,1.1-0.5,2.1s0.2,1.7,0.5,2.1c0.3,0.4,0.8,0.6,1.4,0.6
		c0.6,0,1-0.2,1.5-0.8l1.6,1.6C103.8,30.1,102.8,30.5,101.5,30.5"/>
	<path clip-path="url(#SVGID_2_)" fill="#005DAA" d="M107.5,26.3c0,1.2,0.8,2.1,2.1,2.1c1,0,1.6-0.3,2.2-0.9l1.5,1.4
		c-1,1-1.9,1.5-3.6,1.5c-2.3,0-4.4-1-4.4-4.9c0-3.1,1.7-4.9,4.2-4.9c2.7,0,4.2,1.9,4.2,4.6v1.1H107.5z M110.9,23.7
		c-0.3-0.6-0.8-1-1.6-1c-0.8,0-1.3,0.4-1.6,1c-0.1,0.3-0.2,0.6-0.2,1h3.6C111.1,24.3,111,24,110.9,23.7"/>
	<path clip-path="url(#SVGID_2_)" fill="#005DAA" d="M73.2,47.7c-1.4,0-2.6-0.5-3.5-1.4c-0.6-0.6-0.9-1.2-1.1-2
		c-0.1-0.7-0.2-1.8-0.2-3.3c0-1.4,0.1-2.5,0.2-3.3c0.1-0.8,0.5-1.4,1.1-2c1-1,2.1-1.4,3.5-1.4c2.5,0,4.4,1.5,4.8,4.1h-2.6
		c-0.3-1.1-1-1.9-2.2-1.9c-0.7,0-1.3,0.2-1.6,0.7c-0.5,0.6-0.6,1.2-0.6,3.7c0,2.5,0.1,3.1,0.6,3.7c0.4,0.5,0.9,0.7,1.6,0.7
		c1.2,0,1.9-0.7,2.2-1.9H78C77.5,46.3,75.7,47.7,73.2,47.7"/>
	<path clip-path="url(#SVGID_2_)" fill="#005DAA" d="M84.3,47.6v-0.8c-0.6,0.6-1.2,0.9-2.4,0.9c-1.1,0-1.9-0.3-2.4-0.8
		c-0.5-0.5-0.8-1.3-0.8-2.1c0-1.5,1-2.8,3.3-2.8h2.3v-0.5c0-1-0.5-1.5-1.8-1.5c-0.9,0-1.3,0.2-1.8,0.8l-1.5-1.5
		c0.9-1,1.9-1.3,3.5-1.3c2.7,0,4.1,1.1,4.1,3.4v6.3H84.3z M84.2,43.6h-1.9c-0.9,0-1.3,0.4-1.3,1.1c0,0.7,0.4,1.1,1.4,1.1
		c0.7,0,1.1-0.1,1.5-0.5c0.3-0.2,0.3-0.6,0.3-1.2V43.6z"/>
	<path clip-path="url(#SVGID_2_)" fill="#005DAA" d="M93.4,47.6v-0.9c-0.7,0.7-1.4,1-2.4,1c-0.9,0-1.8-0.3-2.4-0.9c-1-1-1-2.6-1-4
		s0-3.1,1-4c0.5-0.5,1.4-0.9,2.3-0.9c1,0,1.7,0.3,2.3,1v-4.4h2.4v13.1H93.4z M91.7,40.1c-1.4,0-1.6,1.2-1.6,2.7
		c0,1.6,0.2,2.8,1.6,2.8c1.4,0,1.6-1.2,1.6-2.8C93.3,41.3,93.1,40.1,91.7,40.1"/>
	<path clip-path="url(#SVGID_2_)" fill="#005DAA" d="M99.1,43.6c0,1.2,0.8,2.1,2.1,2.1c1,0,1.6-0.3,2.2-0.9l1.5,1.4
		c-1,1-1.9,1.5-3.6,1.5c-2.3,0-4.4-1-4.4-4.9c0-3.1,1.7-4.9,4.2-4.9c2.7,0,4.2,1.9,4.2,4.6v1.1H99.1z M102.5,40.9
		c-0.3-0.6-0.8-1-1.6-1c-0.8,0-1.3,0.4-1.6,1c-0.1,0.3-0.2,0.6-0.2,1h3.6C102.7,41.5,102.7,41.3,102.5,40.9"/>
	<path clip-path="url(#SVGID_2_)" fill="#005DAA" d="M109.6,47.6c-1.9,0-2.8-1.4-2.8-2.7v-4.7h-1v-1.8h1v-2.8h2.4v2.8h1.7v1.8h-1.7
		v4.6c0,0.6,0.3,0.9,0.8,0.9h0.9v2H109.6z"/>
	<path clip-path="url(#SVGID_2_)" fill="#005DAA" d="M115.8,47.7c-1.5,0-2.9-0.2-4.1-1.4l1.6-1.6c0.8,0.8,1.8,0.9,2.6,0.9
		c0.8,0,1.7-0.3,1.7-1c0-0.5-0.3-0.8-1-0.9l-1.5-0.1c-1.7-0.2-2.8-0.9-2.8-2.7c0-2,1.7-3,3.7-3c1.5,0,2.7,0.3,3.7,1.1l-1.5,1.5
		c-0.6-0.5-1.4-0.6-2.2-0.6c-1,0-1.4,0.4-1.4,0.9c0,0.3,0.1,0.8,1,0.8l1.5,0.1c1.9,0.2,2.8,1.2,2.8,2.8
		C119.9,46.7,118.1,47.7,115.8,47.7"/>
</g>
<g>
	<defs>
		<path id="SVGID_3_" d="M0,0v39.7c0,0,0.7,20.6,30.6,30.6c30-10,30.6-30.6,30.6-30.6V0H0z"/>
	</defs>
	<clipPath id="SVGID_4_">
		<use xlink:href="#SVGID_3_"  overflow="visible"/>
	</clipPath>
	
		<radialGradient id="SVGID_5_" cx="-19.678" cy="575.433" r="1" gradientTransform="matrix(63.6406 0 0 -63.6406 1264.9056 36632.6094)" gradientUnits="userSpaceOnUse">
		<stop  offset="0" style="stop-color:#C7EAFB"/>
		<stop  offset="1.098630e-002" style="stop-color:#C7EAFB"/>
		<stop  offset="4.726980e-002" style="stop-color:#ADE2F9"/>
		<stop  offset="0.1833" style="stop-color:#51C6F4"/>
		<stop  offset="0.2787" style="stop-color:#17B5F0"/>
		<stop  offset="0.3242" style="stop-color:#00AEEF"/>
		<stop  offset="0.5836" style="stop-color:#0074BD"/>
		<stop  offset="0.7088" style="stop-color:#005DAA"/>
		<stop  offset="0.9854" style="stop-color:#003066"/>
		<stop  offset="1" style="stop-color:#002E62"/>
	</radialGradient>
	<rect x="0" y="0" clip-path="url(#SVGID_4_)" fill="url(#SVGID_5_)" width="61.2" height="70.3"/>
</g>
<g>
	<defs>
		<rect id="SVGID_6_" x="0" y="0" width="141.7" height="70.3"/>
	</defs>
	<clipPath id="SVGID_7_">
		<use xlink:href="#SVGID_6_"  overflow="visible"/>
	</clipPath>
	<polygon clip-path="url(#SVGID_7_)" fill="#FFFFFF" points="41,38.8 41,41.5 22.3,47.7 22.3,43.9 34.5,40.1 22.3,36.4 22.3,32.6 	
		"/>
	<path clip-path="url(#SVGID_7_)" fill="#FFFFFF" d="M33.9,23.3v3.6H41v3.7H22.3v-7.3c0-3.9,2.7-6.2,5.8-6.2
		C31.3,17.1,33.9,19.4,33.9,23.3 M25.5,23.5v3.4h5.1v-3.4c0-1.7-1-2.7-2.6-2.7C26.6,20.8,25.5,21.8,25.5,23.5"/>
	<path clip-path="url(#SVGID_7_)" fill="#FFFFFF" d="M41.2,8.8c0,2-0.7,3.7-2.1,5.1c-0.8,0.8-1.8,1.3-2.8,1.5
		c-1.1,0.2-2.6,0.3-4.7,0.3S28,15.6,27,15.4c-1.1-0.2-2-0.7-2.8-1.5c-1.4-1.4-2.1-3.1-2.1-5.1c0-3.6,2.1-6.3,5.9-6.9v3.7
		C26.4,6,25.4,7,25.4,8.7c0,1,0.3,1.8,1,2.3c0.8,0.8,1.7,0.9,5.3,0.9s4.5-0.2,5.3-0.9c0.7-0.6,1-1.3,1-2.3c0-1.8-1.1-2.8-2.7-3.2
		V1.9C39,2.5,41.2,5.2,41.2,8.8"/>
	<path clip-path="url(#SVGID_7_)" fill="#FFFFFF" d="M12.1,37.6H7v-5.1H1.9v5.1H7v5.1H2.4c0.4,1.4,0.9,3.1,1.9,5.1H7v-5.1h5.1v5.1
		h5.1v-5.1h-5.1V37.6h5.1v-5.1h-5.1V37.6z M1.9,27.4H7v-5.1H1.9V27.4z M7,32.5h5.1v-5.1H7V32.5z M7,52.3c0.1,0.2,0.3,0.4,0.4,0.6
		h4.7v-5.1H7V52.3z M17.2,22.3h-5.1v5.1h5.1V22.3z M12.1,17.2H7v-5.1H1.9v5.1H7v5.1h5.1V17.2h5.1v-5.1h-5.1V17.2z M12.1,57.9
		C12.1,57.9,12.1,57.9,12.1,57.9l5.1,0v-5.1h-5.1V57.9z M12.1,7h5.1V1.9h-5.1V7z M7,12.1h5.1V7H7V12.1z M1.9,7H7V1.9H1.9V7z"/>
</g>
</svg>
